# xmcd
#
# Track frame offsets:
#	182
#	13475
#	25707
#	38880
#	51617
#	65797
#	78740
#	89555
#	101175
#	112717
#	123612
#	136460
#	148902
#	159255
#	170467
#	183695
#	202012
#	216107
#	226900
#	238877
#
# Disc length: 3355 seconds
#
# Revision: 5
# Processed by: cddbd v1.5.2PL0 Copyright (c) Steve Scherf et al.
# Submitted via: audiograbber 1.83.01
#
DISCID=340d1914
DTITLE=Howlin' Wolf - His Best
DYEAR=1997
DGENRE=Blues
TTITLE0=Moanin' at Midnight
TTITLE1=How Many More Years
TTITLE2=Evil
TTITLE3=Forty-Four
TTITLE4=Smokestack Lightnin'
TTITLE5=I Asked for Water
TTITLE6=Who's Been Talkin'
TTITLE7=Sitting on Top of the World
TTITLE8=Howlin' for My Darling
TTITLE9=Wang Dang Doodle
TTITLE10=Back Door Man
TTITLE11=Spoonful
TTITLE12=Shake for Me
TTITLE13=The Red Rooster
TTITLE14=I Ain't Superstitious
TTITLE15=Goin' Down Slow
TTITLE16=Three Hundred Pounds of Joy
TTITLE17=Hidden Charms
TTITLE18=Built for Comfort
TTITLE19=Killing Floor
EXTD=
EXTT0=Chess 1479, 5/14/51 or 8/1951
EXTT1=Chess 1479, 5/14/51 or 8/1951
EXTT2=Chess 1575, 5/25/54
EXTT3=Chess 1584, 10/1954
EXTT4=Chess 1618 1/1956
EXTT5=Chess 1632, 7/19/1956
EXTT6=Chess 1750, 6/24/1957
EXTT7=Chess 1679, 12/1957
EXTT8=Chess 1762, 7/1959
EXTT9=Chess 1777, 6/1960
EXTT10=Chess 1777, 6/1960
EXTT11=Chess 1762, 6/1960
EXTT12=Chess 1804,  6/1961
EXTT13=Chess 1804, 6/1961
EXTT14=Chess 1823, 12/1961
EXTT15=Chess 1813, 12/1961
EXTT16=Chess 1870, 8/14/1963
EXTT17=Chess 1890, 8/14/1963
EXTT18=Chess 1870, 8/14/1963
EXTT19=Chess 1923, 8/1964
PLAYORDER=
